<svg xmlns="http://www.w3.org/2000/svg" xmlns:xlink="http://www.w3.org/1999/xlink" width="26.517" height="26.523" viewBox="0 0 26.517 26.523">
  <defs>
    <linearGradient id="linear-gradient" x1="0.5" x2="0.5" y2="1" gradientUnits="objectBoundingBox">
      <stop offset="0" stop-color="#b7d094"/>
      <stop offset="0.237" stop-color="#a0c778"/>
      <stop offset="0.545" stop-color="#88bd5a"/>
      <stop offset="0.81" stop-color="#7ab848"/>
      <stop offset="1" stop-color="#75b642"/>
    </linearGradient>
    <linearGradient id="linear-gradient-2" x1="0.5" x2="0.5" y2="1" gradientUnits="objectBoundingBox">
      <stop offset="0" stop-color="#1b4d47"/>
      <stop offset="1" stop-color="#498346"/>
    </linearGradient>
  </defs>
  <g id="Group_1325" data-name="Group 1325" transform="translate(-522.841 -551.818)">
    <path id="Path_7510" data-name="Path 7510" d="M536.1,551.818l3.806,4.071,5.569-.187-.187,5.571,4.071,3.807-4.071,3.807.187,5.571-5.569-.187-3.806,4.072-3.806-4.072-5.569.187.187-5.571-4.071-3.807,4.071-3.807-.187-5.571,5.569.187Z" fill="url(#linear-gradient)"/>
    <path id="Path_7511" data-name="Path 7511" d="M555.6,575.376l2.642,2.827,3.867-.13-.13,3.868,2.826,2.643-2.826,2.643.13,3.868-3.867-.13-2.642,2.827-2.642-2.827-3.867.13.13-3.868-2.826-2.643,2.826-2.643-.13-3.868,3.867.13Z" transform="translate(-19.499 -19.504)" fill="url(#linear-gradient-2)"/>
    <path id="Path_7512" data-name="Path 7512" d="M565.937,587.867l2.025,2.167,2.964-.1-.1,2.965,2.166,2.026-2.166,2.026.1,2.965-2.964-.1-2.025,2.167-2.025-2.167-2.964.1.1-2.965-2.166-2.026,2.166-2.026-.1-2.965,2.964.1Z" transform="translate(-29.838 -29.845)" fill="none" stroke="#fff" stroke-miterlimit="10" stroke-width="3.507"/>
  </g>
</svg>
