<svg xmlns="http://www.w3.org/2000/svg" xmlns:xlink="http://www.w3.org/1999/xlink" width="172.085" height="172.121" viewBox="0 0 172.085 172.121">
  <defs>
    <linearGradient id="linear-gradient" x1="0.5" x2="0.5" y2="1" gradientUnits="objectBoundingBox">
      <stop offset="0" stop-color="#b7d094"/>
      <stop offset="0.237" stop-color="#a0c778"/>
      <stop offset="0.545" stop-color="#88bd5a"/>
      <stop offset="0.81" stop-color="#7ab848"/>
      <stop offset="1" stop-color="#75b642"/>
    </linearGradient>
    <filter id="Path_7510" x="0" y="0" width="172.085" height="172.121" filterUnits="userSpaceOnUse">
      <feOffset dx="3" dy="3" input="SourceAlpha"/>
      <feGaussianBlur stdDeviation="3" result="blur"/>
      <feFlood flood-color="#002401" flood-opacity="0.341"/>
      <feComposite operator="in" in2="blur"/>
      <feComposite in="SourceGraphic"/>
    </filter>
    <linearGradient id="linear-gradient-2" x1="0.5" x2="0.5" y2="1" gradientUnits="objectBoundingBox">
      <stop offset="0" stop-color="#1b4d47"/>
      <stop offset="1" stop-color="#498346"/>
    </linearGradient>
  </defs>
  <g id="Group_1329" data-name="Group 1329" transform="translate(-516.841 -545.818)">
    <g transform="matrix(1, 0, 0, 1, 516.84, 545.82)" filter="url(#Path_7510)">
      <path id="Path_7510-2" data-name="Path 7510" d="M599.883,551.818,622,575.477l32.363-1.088-1.088,32.37,23.653,22.12L653.272,651l1.088,32.37L622,682.28l-22.115,23.659L577.768,682.28l-32.363,1.088L546.494,651l-23.653-22.12,23.653-22.12-1.088-32.37,32.363,1.088Z" transform="translate(-516.84 -545.82)" fill="url(#linear-gradient)"/>
    </g>
    <path id="Path_7511" data-name="Path 7511" d="M614.413,575.376l19.525,20.888,28.573-.961-.961,28.579,20.883,19.529L661.55,662.941l.961,28.579-28.573-.961-19.525,20.888L594.888,690.56l-28.573.961.96-28.579-20.883-19.529,20.883-19.529-.96-28.579,28.573.961Z" transform="translate(-14.53 -14.533)" fill="url(#linear-gradient-2)"/>
    <g id="Group_1328" data-name="Group 1328" transform="translate(550.785 581.671)">
      <path id="Path_7515" data-name="Path 7515" d="M-526.912-766.729a3.132,3.132,0,0,1,.231,3.241c0-.464.232-.926-.231-1.157-.232,0-.232.231-.232.462a1.2,1.2,0,0,0-.463-.925,11.456,11.456,0,0,0-.464,3.936c-.463-.231,0-1.159-.463-.927-.7.232-.231,1.389,0,2.084a11.537,11.537,0,0,1-.463-9.958,21.184,21.184,0,0,1,4.168-5.095c.231-.232.7-.927,0-.927-.7-.232-1.157.463-1.39,1.156l-.463-.462c-.231.694-.694,1.389-.926,2.084,0-.232,0-.927-.231-.927-.7.232-.7,1.389-.927,2.085,0-.231,0-.926-.231-.7-.694.465-.694,1.621-.927,2.547,0-.231.232-.927-.232-.927-.694.233-.461,1.159-.461,1.853a.813.813,0,0,0-.233-.464c-.693.7-.463,1.622-.463,2.316-.463-.231-.231-.926-.463-.926-.7.7-.464,1.622-.7,2.547-.232-.462.232-1.157-.232-1.621a7.446,7.446,0,0,0-.694,2.085c-.231-.694.232-1.388-.231-1.852-.464.7,0,1.621-.232,2.316a10.578,10.578,0,0,1,.232-6.021,17.314,17.314,0,0,1,1.619-2.78,12.131,12.131,0,0,1,2.55-2.316c1.389-1.158,3.241-1.39,4.4-2.779-.464-.464-1.159.231-1.622-.232l-.463.463c0-.231,0-.463-.231-.463a1.208,1.208,0,0,0-.927.463c0-.231,0-.463-.231-.463-.463,0-.7.463-.926.7a.805.805,0,0,0-.231-.463c-.232.231-.926.231-.926.926l-.464-.463a1.2,1.2,0,0,0-.462.927c0-.232,0-.464-.232-.464a1.2,1.2,0,0,0-.464.927l-.232-.231a3.289,3.289,0,0,0-.462,1.389.812.812,0,0,0-.231-.464c-.464.464-.232,1.159-.464,1.621-.464-2.778.7-5.326,3.242-6.022,2.549-.925,5.327-1.619,8.107-.23a.812.812,0,0,0,.231-.463c-.231-.7-.926-2.085-1.853-1.159a.848.848,0,0,1,.232-.694c-.463-.7-1.158.231-1.622,0l.232-.232c-.464-.694-.926.232-1.389,0l.231-.231c0-.232-.231-.232-.463-.232-.231.232-.926.232-.926.926,0-.231.231-.926-.231-.926-.7.232-.927,1.158-1.392,1.622a1.9,1.9,0,0,1,.927-2.317,7.214,7.214,0,0,1,6.484-.925,5.425,5.425,0,0,1,2.781,2.778,11.5,11.5,0,0,0,.926-3.011.853.853,0,0,0,.231.7c.464-.926.232-2.084.694-3.01.465.927.232,2.084.7,3.01a.849.849,0,0,0,.232-.7,11.5,11.5,0,0,0,.926,3.011,5.4,5.4,0,0,1,3.706-3.011c2.547-.463,6.715.233,6.482,3.475-.461-.464-.693-1.389-1.388-1.622-.462,0-.231.7-.231.926,0-.694-.7-.694-.927-.926s-.461,0-.461.232.231.231.231.463c-.464-.232-.926-.7-1.389-.232.231,0,.231.232.231.463a3.31,3.31,0,0,0-1.389-.463c-.464.232.229.7,0,.927-.232-.464-.7-.231-.927-.231-.464.464-1.39,1.853-1.159,1.853a12.115,12.115,0,0,1,8.569.23,5.922,5.922,0,0,1,2.78,2.085,7.447,7.447,0,0,1,.463,3.937c-.463-.462,0-1.157-.463-1.621a.811.811,0,0,0-.232.464c0-.926-.694-1.389-1.157-2.085-.231,0-.231.232-.231.464a1.2,1.2,0,0,0-.465-.927c-.23.232-.23.232-.462.463,0-.7-.7-.7-.927-.926a.8.8,0,0,0-.232.463c-.233-.232-.462-.463-.694-.7-.463,0-.694.463-1.158,0-.231-.231-.464,0-.464.463l-.463-.463c-.461.463-1.156-.231-1.62.232,2.083,1.852,5.094,2.547,6.947,5.095,1.852,2.78,2.779,5.789,1.852,8.8-.231-.7.233-1.621-.231-2.316-.463.464,0,1.158-.231,1.852a7.389,7.389,0,0,0-.694-2.085c-.464.464-.231,1.159-.231,1.621-.232-.924,0-1.852-.7-2.547-.231,0,0,.7-.463.926,0-.694.232-1.621-.463-2.316a.814.814,0,0,0-.232.464c0-.694.232-1.62-.464-1.853-.463,0-.231.7-.231.927-.231-.927-.231-2.083-.926-2.547-.232-.231-.232.465-.232.7-.231-.7-.231-1.853-.927-2.085-.231,0-.231.694-.231.927-.231-.695-.7-1.39-.927-2.084-.231.232-.231.232-.461.462a2.093,2.093,0,0,0-1.391-1.389c-.231,0-.231.464-.231.7,1.389,1.853,3.241,3.243,4.4,5.095,1.621,3.243,1.157,7.18-.464,10.422.231-.7.693-1.852,0-2.084-.463-.232,0,.7-.463.927a11.455,11.455,0,0,0-.464-3.936,1.2,1.2,0,0,0-.464.925c0-.231,0-.462-.231-.462-.462.231-.231.694-.231,1.157a5.239,5.239,0,0,1,.463-3.705,3.293,3.293,0,0,0-.463-1.39,1.2,1.2,0,0,0-.461.927c-.233-.927,0-2.085-.465-3.01-.462.23-.23.694-.23.925-.464-.694.23-1.62-.464-2.084-.232,0,0,.694-.463.927,0-.694.231-1.621-.466-2.085-.229,0-.229.7-.229.926,0-.7-.232-1.853-.927-2.085-.231,0,0,.694-.231.927h-.464c0-.232,0-.463-.232-.463s-.463,0-.463.231c.231.695,1.159.695,1.39,1.39,0,.7.694.926.694,1.621a.872.872,0,0,0-1.389-.23c1.157.462,2.317,1.158,2.084,2.546a1.536,1.536,0,0,0-.927-1.158c-.231,0-.693,0-.693.231.926.927,1.853,1.853,1.62,3.242a1.278,1.278,0,0,0-.694-1.157.807.807,0,0,0-.464.233c.7,1.388,1.391,2.777.925,4.4,0-.462.233-1.157-.229-.925-.464,0-.232.7-.232,1.157l-.232-.232c-.462.7.232,1.159,0,1.854s-.231,1.158-.462,1.853c-.231-.7.231-1.622-.231-2.317a7.354,7.354,0,0,0-.464,3.242c0-.232,0-.464-.232-.464-.463.232,0,.927-.463,1.159.231-1.621-.463-3.243-.463-4.863.231,0,.463,0,.463-.232,0-.462.231-1.39-.231-1.39-.463-.231,0,.927-.463,1.157,0-.925,0-1.852-.7-2.083-.464-.231.232.694-.464.926-.927.232-.464-.7-.927-1.157-.693,9.263-.461,14.164,0,23.428,0,1.157.7,2.315.464,3.473a2.031,2.031,0,0,0-.231,1.621,3.734,3.734,0,0,0,.694,2.086c.233.927-.694,1.851-.464,2.779a24.7,24.7,0,0,0,2.548,4.863h-9.263c.927-1.852,2.548-3.474,2.317-5.558,0-.7-.464-1.389-.232-2.084,1.158-1.854.232-3.475.464-5.559a3.284,3.284,0,0,0,.462-1.389,201.018,201.018,0,0,0,0-23.66c-.462.231-.23.694-.23.926-.232.464-.927.231-1.159-.232.231,0,.231-.231.231-.462-.464-.694-.464.231-.7.231a2.466,2.466,0,0,0-.231,1.852c-.463-.23,0-1.389-.463-1.157-.464,0-.231.927-.231,1.39,0,.232.231.232.463.232,0,1.62-.7,3.242-.463,4.863-.464-.231,0-.927-.464-1.159-.231,0-.231.232-.231.464a7.354,7.354,0,0,0-.464-3.242c-.464.694,0,1.622-.231,2.317-.232-.7-.232-1.158-.464-1.853s.464-1.159,0-1.854l-.231.232c0-.462.231-1.157-.232-1.157-.462-.232-.231.463-.231.925a4.584,4.584,0,0,1,.926-4.167c.232-.231,0-.464-.231-.464-.694,0-.694.7-.926,1.157-.233-1.389.694-2.315,1.621-3.242,0-.231-.464-.231-.7-.231a1.537,1.537,0,0,0-.926,1.158c-.233-1.388.926-2.084,2.085-2.546a.873.873,0,0,0-1.39.23,5.891,5.891,0,0,1,1.852-2.316,1.2,1.2,0,0,0-.926-.463c.464-.232,0-.695.464-.927,0-.231-.231-.231-.464-.231a2.851,2.851,0,0,0-1.159,2.316c0-.231,0-.926-.231-.926-.7.464-.465,1.39-.465,2.085-.462-.233,0-.927-.462-.927-.7.464,0,1.389-.464,2.084,0-.231.231-.694-.231-.925-.464.925-.231,2.083-.464,3.01a1.2,1.2,0,0,0-.463-.927C-526.912-767.888-527.375-767.425-526.912-766.729Z" transform="translate(566.051 788.036)" fill="#fff" fill-rule="evenodd"/>
      <path id="Path_7516" data-name="Path 7516" d="M-545.673-717.681c7.666,2.243,14.36,6.485,20.614,11.118,13.2-11.581,31.725-15.981,48.865-12.738-16.444.464-33.582,4.863-45.624,16.442q4.86,4.516,9.727,9.032c.927-1.389.927-3.242,2.085-4.631a5.255,5.255,0,0,1,4.631-1.853,3.607,3.607,0,0,1,2.779,4.171c-.694,2.777-3.705,3.472-6.254,1.851-.462-.233-1.156,1.389-.694,2.085.927,1.621,2.78,2.547,4.633,3.241a3.68,3.68,0,0,1,6.02,0,3.148,3.148,0,0,1-1.157,4.634c-4.4,1.852-9.032-1.159-12.506-3.938-2.084,3.243-7.642,6.716-10.886,2.547a3.224,3.224,0,0,1-.464-2.547,3.608,3.608,0,0,1,4.171-2.78,3.073,3.073,0,0,1,2.316,1.389c.462.694-.231,1.853.694,1.622.694,0,1.852-1.159,1.621-1.39-2.315-4.4-6.716-6.714-10.19-9.958-3.474,3.244-7.41,5.558-10.19,9.727-.463.694.926,1.622,1.621,1.622.926,0,.464-2.085,1.621-2.547a4.54,4.54,0,0,1,3.474-.232,3.892,3.892,0,0,1,2.085,3.937c-.464,2.317-3.011,3.242-5.1,3.011a9.337,9.337,0,0,1-6.252-4.4c-3.243,2.547-6.949,5.095-11.349,4.631a3.341,3.341,0,0,1-2.316-1.621,3.706,3.706,0,0,1,1.158-4.864,3.705,3.705,0,0,1,4.862,1.158c1.854-.694,3.707-1.62,4.633-3.241.464-.7-.231-2.318-.926-2.085-1.158.462-2.548,1.157-3.938.694a3.893,3.893,0,0,1-2.083-3.937,3.554,3.554,0,0,1,4.4-2.78,8.167,8.167,0,0,1,3.01,1.853c1.158,1.389,1.158,3.242,2.084,4.631q4.864-4.514,9.727-9.032c-12.043-11.579-29.18-15.978-45.624-16.442A60.474,60.474,0,0,1-545.673-717.681Z" transform="translate(574.39 773.996)" fill="#fff" fill-rule="evenodd"/>
    </g>
  </g>
</svg>
